<mxfile host="app.diagrams.net" modified="2023-10-03T20:46:22.666Z" agent="Mozilla/5.0 (Windows NT 10.0; Win64; x64) AppleWebKit/537.36 (KHTML, like Gecko) Chrome/117.0.0.0 Safari/537.36" etag="VkG00eHF9TN2cYc5JHN6" version="22.0.0" type="device">
  <diagram id="R2lEEEUBdFMjLlhIrx00" name="Page-1">
    <mxGraphModel dx="2359" dy="798" grid="1" gridSize="10" guides="1" tooltips="1" connect="1" arrows="1" fold="1" page="1" pageScale="1" pageWidth="850" pageHeight="1100" math="0" shadow="0" extFonts="Permanent Marker^https://fonts.googleapis.com/css?family=Permanent+Marker">
      <root>
        <mxCell id="0" />
        <mxCell id="1" parent="0" />
        <mxCell id="C-vyLk0tnHw3VtMMgP7b-1" value="" style="edgeStyle=entityRelationEdgeStyle;endArrow=ERoneToMany;startArrow=ERmandOne;endFill=0;startFill=0;entryX=-0.01;entryY=0.173;entryDx=0;entryDy=0;entryPerimeter=0;" parent="1" source="C-vyLk0tnHw3VtMMgP7b-24" target="C-vyLk0tnHw3VtMMgP7b-14" edge="1">
          <mxGeometry width="100" height="100" relative="1" as="geometry">
            <mxPoint x="340" y="720" as="sourcePoint" />
            <mxPoint x="440" y="620" as="targetPoint" />
          </mxGeometry>
        </mxCell>
        <mxCell id="C-vyLk0tnHw3VtMMgP7b-12" value="" style="edgeStyle=entityRelationEdgeStyle;endArrow=ERzeroToMany;startArrow=ERmandOne;endFill=1;startFill=0;entryX=1.012;entryY=0;entryDx=0;entryDy=0;entryPerimeter=0;exitX=-0.003;exitY=0.152;exitDx=0;exitDy=0;exitPerimeter=0;" parent="1" source="C-vyLk0tnHw3VtMMgP7b-2" target="C-vyLk0tnHw3VtMMgP7b-14" edge="1">
          <mxGeometry width="100" height="100" relative="1" as="geometry">
            <mxPoint x="865" y="250" as="sourcePoint" />
            <mxPoint x="830" y="190" as="targetPoint" />
          </mxGeometry>
        </mxCell>
        <mxCell id="C-vyLk0tnHw3VtMMgP7b-23" value="Участок поликлиники" style="shape=table;startSize=20;container=1;collapsible=1;childLayout=tableLayout;fixedRows=1;rowLines=0;fontStyle=1;align=center;resizeLast=1;" parent="1" vertex="1">
          <mxGeometry x="-120" y="40" width="250" height="50" as="geometry" />
        </mxCell>
        <mxCell id="C-vyLk0tnHw3VtMMgP7b-24" value="" style="shape=partialRectangle;collapsible=0;dropTarget=0;pointerEvents=0;fillColor=none;points=[[0,0.5],[1,0.5]];portConstraint=eastwest;top=0;left=0;right=0;bottom=1;" parent="C-vyLk0tnHw3VtMMgP7b-23" vertex="1">
          <mxGeometry y="20" width="250" height="30" as="geometry" />
        </mxCell>
        <mxCell id="C-vyLk0tnHw3VtMMgP7b-25" value="" style="shape=partialRectangle;overflow=hidden;connectable=0;fillColor=none;top=0;left=0;bottom=0;right=0;fontStyle=1;" parent="C-vyLk0tnHw3VtMMgP7b-24" vertex="1">
          <mxGeometry width="20" height="30" as="geometry">
            <mxRectangle width="20" height="30" as="alternateBounds" />
          </mxGeometry>
        </mxCell>
        <mxCell id="C-vyLk0tnHw3VtMMgP7b-26" value="№ Поликлиники" style="shape=partialRectangle;overflow=hidden;connectable=0;fillColor=none;top=0;left=0;bottom=0;right=0;align=center;spacingLeft=6;fontStyle=5;" parent="C-vyLk0tnHw3VtMMgP7b-24" vertex="1">
          <mxGeometry x="20" width="230" height="30" as="geometry">
            <mxRectangle width="230" height="30" as="alternateBounds" />
          </mxGeometry>
        </mxCell>
        <mxCell id="BYQUXF2dgdxvXV2nVjLv-58" value="" style="group" parent="1" vertex="1" connectable="0">
          <mxGeometry x="50" y="150" width="260" height="530" as="geometry" />
        </mxCell>
        <mxCell id="BYQUXF2dgdxvXV2nVjLv-177" value="" style="group" parent="BYQUXF2dgdxvXV2nVjLv-58" vertex="1" connectable="0">
          <mxGeometry width="255" height="300" as="geometry" />
        </mxCell>
        <mxCell id="BYQUXF2dgdxvXV2nVjLv-1" value="Карточка пациента" style="shape=table;startSize=30;container=1;collapsible=1;childLayout=tableLayout;fixedRows=1;rowLines=0;fontStyle=1;align=center;resizeLast=1;" parent="BYQUXF2dgdxvXV2nVjLv-177" vertex="1">
          <mxGeometry width="250" height="60" as="geometry" />
        </mxCell>
        <mxCell id="BYQUXF2dgdxvXV2nVjLv-2" value="" style="shape=partialRectangle;collapsible=0;dropTarget=0;pointerEvents=0;fillColor=none;points=[[0,0.5],[1,0.5]];portConstraint=eastwest;top=0;left=0;right=0;bottom=1;" parent="BYQUXF2dgdxvXV2nVjLv-1" vertex="1">
          <mxGeometry y="30" width="250" height="30" as="geometry" />
        </mxCell>
        <mxCell id="BYQUXF2dgdxvXV2nVjLv-3" value="" style="shape=partialRectangle;overflow=hidden;connectable=0;fillColor=none;top=0;left=0;bottom=0;right=0;fontStyle=1;" parent="BYQUXF2dgdxvXV2nVjLv-2" vertex="1">
          <mxGeometry width="30" height="30" as="geometry">
            <mxRectangle width="30" height="30" as="alternateBounds" />
          </mxGeometry>
        </mxCell>
        <mxCell id="BYQUXF2dgdxvXV2nVjLv-4" value="№ карточки" style="shape=partialRectangle;overflow=hidden;connectable=0;fillColor=none;top=0;left=0;bottom=0;right=0;align=center;spacingLeft=6;fontStyle=5;" parent="BYQUXF2dgdxvXV2nVjLv-2" vertex="1">
          <mxGeometry x="30" width="220" height="30" as="geometry">
            <mxRectangle width="220" height="30" as="alternateBounds" />
          </mxGeometry>
        </mxCell>
        <mxCell id="BYQUXF2dgdxvXV2nVjLv-115" value="" style="group" parent="BYQUXF2dgdxvXV2nVjLv-177" vertex="1" connectable="0">
          <mxGeometry x="5" y="120" width="250" height="60" as="geometry" />
        </mxCell>
        <mxCell id="BYQUXF2dgdxvXV2nVjLv-116" value="" style="group" parent="BYQUXF2dgdxvXV2nVjLv-115" vertex="1" connectable="0">
          <mxGeometry width="250" height="60" as="geometry" />
        </mxCell>
        <mxCell id="BYQUXF2dgdxvXV2nVjLv-117" value="Заведущий поликлиникой" style="shape=table;startSize=30;container=1;collapsible=1;childLayout=tableLayout;fixedRows=1;rowLines=0;fontStyle=1;align=center;resizeLast=1;" parent="BYQUXF2dgdxvXV2nVjLv-116" vertex="1">
          <mxGeometry width="250" height="60" as="geometry" />
        </mxCell>
        <mxCell id="BYQUXF2dgdxvXV2nVjLv-118" value="" style="shape=partialRectangle;collapsible=0;dropTarget=0;pointerEvents=0;fillColor=none;points=[[0,0.5],[1,0.5]];portConstraint=eastwest;top=0;left=0;right=0;bottom=1;" parent="BYQUXF2dgdxvXV2nVjLv-117" vertex="1">
          <mxGeometry y="30" width="250" height="30" as="geometry" />
        </mxCell>
        <mxCell id="BYQUXF2dgdxvXV2nVjLv-119" value="" style="shape=partialRectangle;overflow=hidden;connectable=0;fillColor=none;top=0;left=0;bottom=0;right=0;fontStyle=1;" parent="BYQUXF2dgdxvXV2nVjLv-118" vertex="1">
          <mxGeometry width="30" height="30" as="geometry">
            <mxRectangle width="30" height="30" as="alternateBounds" />
          </mxGeometry>
        </mxCell>
        <mxCell id="BYQUXF2dgdxvXV2nVjLv-120" value="ФИО заведущего" style="shape=partialRectangle;overflow=hidden;connectable=0;fillColor=none;top=0;left=0;bottom=0;right=0;align=center;spacingLeft=6;fontStyle=5;" parent="BYQUXF2dgdxvXV2nVjLv-118" vertex="1">
          <mxGeometry x="30" width="220" height="30" as="geometry">
            <mxRectangle width="220" height="30" as="alternateBounds" />
          </mxGeometry>
        </mxCell>
        <mxCell id="BYQUXF2dgdxvXV2nVjLv-127" value="" style="shape=partialRectangle;collapsible=0;dropTarget=0;pointerEvents=0;fillColor=none;points=[[0,0.5],[1,0.5]];portConstraint=eastwest;top=0;left=0;right=0;bottom=1;" parent="BYQUXF2dgdxvXV2nVjLv-116" vertex="1">
          <mxGeometry y="23.47826086956522" width="250" height="8" as="geometry" />
        </mxCell>
        <mxCell id="BYQUXF2dgdxvXV2nVjLv-128" value="" style="shape=partialRectangle;overflow=hidden;connectable=0;fillColor=none;top=0;left=0;bottom=0;right=0;fontStyle=1;" parent="BYQUXF2dgdxvXV2nVjLv-127" vertex="1">
          <mxGeometry width="30" height="8" as="geometry">
            <mxRectangle width="30" height="30" as="alternateBounds" />
          </mxGeometry>
        </mxCell>
        <mxCell id="BYQUXF2dgdxvXV2nVjLv-129" value="" style="shape=partialRectangle;overflow=hidden;connectable=0;fillColor=none;top=0;left=0;bottom=0;right=0;align=center;spacingLeft=6;fontStyle=5;" parent="BYQUXF2dgdxvXV2nVjLv-127" vertex="1">
          <mxGeometry x="30" width="220" height="7.826086956521739" as="geometry">
            <mxRectangle width="220" height="30" as="alternateBounds" />
          </mxGeometry>
        </mxCell>
        <mxCell id="BYQUXF2dgdxvXV2nVjLv-86" value="Пациент" style="shape=table;startSize=30;container=1;collapsible=1;childLayout=tableLayout;fixedRows=1;rowLines=0;fontStyle=1;align=center;resizeLast=1;movable=1;resizable=1;rotatable=1;deletable=1;editable=1;locked=0;connectable=1;" parent="BYQUXF2dgdxvXV2nVjLv-177" vertex="1">
          <mxGeometry x="-475" y="-10" width="255" height="60" as="geometry" />
        </mxCell>
        <mxCell id="BYQUXF2dgdxvXV2nVjLv-87" value="" style="shape=partialRectangle;collapsible=0;dropTarget=0;pointerEvents=0;fillColor=none;points=[[0,0.5],[1,0.5]];portConstraint=eastwest;top=0;left=0;right=0;bottom=1;movable=1;resizable=1;rotatable=1;deletable=1;editable=1;locked=0;connectable=1;" parent="BYQUXF2dgdxvXV2nVjLv-86" vertex="1">
          <mxGeometry y="30" width="255" height="30" as="geometry" />
        </mxCell>
        <mxCell id="BYQUXF2dgdxvXV2nVjLv-88" value="" style="shape=partialRectangle;overflow=hidden;connectable=1;fillColor=none;top=0;left=0;bottom=0;right=0;fontStyle=1;movable=1;resizable=1;rotatable=1;deletable=1;editable=1;locked=0;" parent="BYQUXF2dgdxvXV2nVjLv-87" vertex="1">
          <mxGeometry width="30" height="30" as="geometry">
            <mxRectangle width="30" height="30" as="alternateBounds" />
          </mxGeometry>
        </mxCell>
        <mxCell id="BYQUXF2dgdxvXV2nVjLv-89" value="ФИО пациента" style="shape=partialRectangle;overflow=hidden;connectable=1;fillColor=none;top=0;left=0;bottom=0;right=0;align=center;spacingLeft=6;fontStyle=5;movable=1;resizable=1;rotatable=1;deletable=1;editable=1;locked=0;" parent="BYQUXF2dgdxvXV2nVjLv-87" vertex="1">
          <mxGeometry x="30" width="225" height="30" as="geometry">
            <mxRectangle width="225" height="30" as="alternateBounds" />
          </mxGeometry>
        </mxCell>
        <mxCell id="BYQUXF2dgdxvXV2nVjLv-180" style="rounded=0;orthogonalLoop=1;jettySize=auto;html=1;fontFamily=Helvetica;fontSize=12;fontColor=default;endArrow=ERmandOne;endFill=0;exitX=1;exitY=0;exitDx=0;exitDy=0;startArrow=ERmandOne;startFill=0;entryX=-0.01;entryY=-0.2;entryDx=0;entryDy=0;entryPerimeter=0;" parent="BYQUXF2dgdxvXV2nVjLv-177" source="BYQUXF2dgdxvXV2nVjLv-89" target="BYQUXF2dgdxvXV2nVjLv-2" edge="1">
          <mxGeometry relative="1" as="geometry">
            <mxPoint x="250" y="285" as="targetPoint" />
          </mxGeometry>
        </mxCell>
        <mxCell id="BYQUXF2dgdxvXV2nVjLv-80" value="" style="group" parent="1" vertex="1" connectable="0">
          <mxGeometry x="450" y="360" width="250" height="160" as="geometry" />
        </mxCell>
        <mxCell id="BYQUXF2dgdxvXV2nVjLv-65" value="" style="group" parent="BYQUXF2dgdxvXV2nVjLv-80" vertex="1" connectable="0">
          <mxGeometry width="250" height="160" as="geometry" />
        </mxCell>
        <mxCell id="C-vyLk0tnHw3VtMMgP7b-13" value="Врач" style="shape=table;startSize=30;container=1;collapsible=1;childLayout=tableLayout;fixedRows=1;rowLines=0;fontStyle=1;align=center;resizeLast=1;" parent="BYQUXF2dgdxvXV2nVjLv-65" vertex="1">
          <mxGeometry x="-25" y="-320" width="250" height="60" as="geometry" />
        </mxCell>
        <mxCell id="C-vyLk0tnHw3VtMMgP7b-14" value="" style="shape=partialRectangle;collapsible=0;dropTarget=0;pointerEvents=0;fillColor=none;points=[[0,0.5],[1,0.5]];portConstraint=eastwest;top=0;left=0;right=0;bottom=1;" parent="C-vyLk0tnHw3VtMMgP7b-13" vertex="1">
          <mxGeometry y="30" width="250" height="30" as="geometry" />
        </mxCell>
        <mxCell id="C-vyLk0tnHw3VtMMgP7b-15" value="" style="shape=partialRectangle;overflow=hidden;connectable=0;fillColor=none;top=0;left=0;bottom=0;right=0;fontStyle=1;" parent="C-vyLk0tnHw3VtMMgP7b-14" vertex="1">
          <mxGeometry width="20" height="30" as="geometry">
            <mxRectangle width="20" height="30" as="alternateBounds" />
          </mxGeometry>
        </mxCell>
        <mxCell id="C-vyLk0tnHw3VtMMgP7b-16" value="ФИО врача" style="shape=partialRectangle;overflow=hidden;connectable=0;fillColor=none;top=0;left=0;bottom=0;right=0;align=center;spacingLeft=6;fontStyle=5;" parent="C-vyLk0tnHw3VtMMgP7b-14" vertex="1">
          <mxGeometry x="20" width="230" height="30" as="geometry">
            <mxRectangle width="230" height="30" as="alternateBounds" />
          </mxGeometry>
        </mxCell>
        <mxCell id="BYQUXF2dgdxvXV2nVjLv-182" value="" style="shape=partialRectangle;overflow=hidden;connectable=0;fillColor=none;top=0;left=0;bottom=0;right=0;align=center;spacingLeft=6;fontStyle=5;" parent="BYQUXF2dgdxvXV2nVjLv-65" vertex="1">
          <mxGeometry x="5" y="-181.9975362318841" width="220" height="20.869565217391305" as="geometry">
            <mxRectangle width="220" height="30" as="alternateBounds" />
          </mxGeometry>
        </mxCell>
        <mxCell id="BYQUXF2dgdxvXV2nVjLv-185" value="" style="shape=partialRectangle;overflow=hidden;connectable=0;fillColor=none;top=0;left=0;bottom=0;right=0;fontStyle=1;" parent="BYQUXF2dgdxvXV2nVjLv-65" vertex="1">
          <mxGeometry x="-25" y="-182" width="20" height="20.87" as="geometry">
            <mxRectangle width="30" height="30" as="alternateBounds" />
          </mxGeometry>
        </mxCell>
        <mxCell id="BYQUXF2dgdxvXV2nVjLv-189" value="&lt;font style=&quot;font-size: 24px;&quot;&gt;Обслуживает&lt;/font&gt;" style="text;html=1;strokeColor=none;fillColor=none;align=center;verticalAlign=middle;whiteSpace=wrap;rounded=0;fontSize=12;fontFamily=Helvetica;fontColor=default;" parent="BYQUXF2dgdxvXV2nVjLv-65" vertex="1">
          <mxGeometry x="-120" y="-211.13" width="190" height="50" as="geometry" />
        </mxCell>
        <mxCell id="BYQUXF2dgdxvXV2nVjLv-109" value="" style="group" parent="1" vertex="1" connectable="0">
          <mxGeometry x="430" y="540" width="250" height="173.64999999999998" as="geometry" />
        </mxCell>
        <mxCell id="BYQUXF2dgdxvXV2nVjLv-110" value="" style="group" parent="1" vertex="1" connectable="0">
          <mxGeometry x="750" y="340" width="250" height="180" as="geometry" />
        </mxCell>
        <mxCell id="BYQUXF2dgdxvXV2nVjLv-77" value="" style="group" parent="BYQUXF2dgdxvXV2nVjLv-110" vertex="1" connectable="0">
          <mxGeometry width="250" height="150" as="geometry" />
        </mxCell>
        <mxCell id="C-vyLk0tnHw3VtMMgP7b-2" value="Расписание врача" style="shape=table;startSize=30;container=1;collapsible=1;childLayout=tableLayout;fixedRows=1;rowLines=0;fontStyle=1;align=center;resizeLast=1;" parent="BYQUXF2dgdxvXV2nVjLv-77" vertex="1">
          <mxGeometry x="210" y="-285" width="250" height="60" as="geometry" />
        </mxCell>
        <mxCell id="C-vyLk0tnHw3VtMMgP7b-3" value="" style="shape=partialRectangle;collapsible=0;dropTarget=0;pointerEvents=0;fillColor=none;points=[[0,0.5],[1,0.5]];portConstraint=eastwest;top=0;left=0;right=0;bottom=1;" parent="C-vyLk0tnHw3VtMMgP7b-2" vertex="1">
          <mxGeometry y="30" width="250" height="30" as="geometry" />
        </mxCell>
        <mxCell id="C-vyLk0tnHw3VtMMgP7b-4" value="" style="shape=partialRectangle;overflow=hidden;connectable=0;fillColor=none;top=0;left=0;bottom=0;right=0;fontStyle=1;" parent="C-vyLk0tnHw3VtMMgP7b-3" vertex="1">
          <mxGeometry width="30" height="30" as="geometry">
            <mxRectangle width="30" height="30" as="alternateBounds" />
          </mxGeometry>
        </mxCell>
        <mxCell id="C-vyLk0tnHw3VtMMgP7b-5" value="ФИО врача" style="shape=partialRectangle;overflow=hidden;connectable=0;fillColor=none;top=0;left=0;bottom=0;right=0;align=center;spacingLeft=6;fontStyle=5;" parent="C-vyLk0tnHw3VtMMgP7b-3" vertex="1">
          <mxGeometry x="30" width="220" height="30" as="geometry">
            <mxRectangle width="220" height="30" as="alternateBounds" />
          </mxGeometry>
        </mxCell>
        <mxCell id="BYQUXF2dgdxvXV2nVjLv-179" style="edgeStyle=orthogonalEdgeStyle;rounded=0;orthogonalLoop=1;jettySize=auto;html=1;entryX=1;entryY=0.5;entryDx=0;entryDy=0;fontFamily=Helvetica;fontSize=12;fontColor=default;endArrow=ERoneToMany;endFill=0;startArrow=ERmandOne;startFill=0;exitX=0.398;exitY=0.987;exitDx=0;exitDy=0;exitPerimeter=0;" parent="1" source="C-vyLk0tnHw3VtMMgP7b-14" target="BYQUXF2dgdxvXV2nVjLv-2" edge="1">
          <mxGeometry relative="1" as="geometry">
            <mxPoint x="300" y="375" as="targetPoint" />
          </mxGeometry>
        </mxCell>
        <mxCell id="BYQUXF2dgdxvXV2nVjLv-187" style="edgeStyle=orthogonalEdgeStyle;rounded=0;orthogonalLoop=1;jettySize=auto;html=1;entryX=0.926;entryY=1.013;entryDx=0;entryDy=0;entryPerimeter=0;fontFamily=Helvetica;fontSize=12;fontColor=default;endArrow=ERzeroToMany;endFill=0;startArrow=ERmandOne;startFill=0;" parent="1" source="BYQUXF2dgdxvXV2nVjLv-118" target="C-vyLk0tnHw3VtMMgP7b-14" edge="1">
          <mxGeometry relative="1" as="geometry" />
        </mxCell>
        <mxCell id="BYQUXF2dgdxvXV2nVjLv-188" value="&lt;font style=&quot;font-size: 24px;&quot;&gt;Увольняет&lt;/font&gt;" style="text;html=1;strokeColor=none;fillColor=none;align=center;verticalAlign=middle;whiteSpace=wrap;rounded=0;fontSize=12;fontFamily=Helvetica;fontColor=default;" parent="1" vertex="1">
          <mxGeometry x="470" y="270" width="100" height="50" as="geometry" />
        </mxCell>
        <mxCell id="BYQUXF2dgdxvXV2nVjLv-192" value="&lt;font style=&quot;font-size: 24px;&quot;&gt;Работает в поликлинике&lt;/font&gt;" style="text;html=1;strokeColor=none;fillColor=none;align=center;verticalAlign=middle;whiteSpace=wrap;rounded=0;fontSize=12;fontFamily=Helvetica;fontColor=default;" parent="1" vertex="1">
          <mxGeometry x="130" y="30" width="280" height="50" as="geometry" />
        </mxCell>
        <mxCell id="BYQUXF2dgdxvXV2nVjLv-202" value="&lt;font style=&quot;font-size: 24px;&quot;&gt;Имеет карточку&lt;/font&gt;" style="text;html=1;strokeColor=none;fillColor=none;align=center;verticalAlign=middle;whiteSpace=wrap;rounded=0;fontSize=12;fontFamily=Helvetica;fontColor=default;" parent="1" vertex="1">
          <mxGeometry x="-170" y="130" width="200" height="50" as="geometry" />
        </mxCell>
        <mxCell id="BYQUXF2dgdxvXV2nVjLv-203" value="&lt;font style=&quot;font-size: 24px;&quot;&gt;Есть запись на приём&lt;/font&gt;" style="text;html=1;strokeColor=none;fillColor=none;align=center;verticalAlign=middle;whiteSpace=wrap;rounded=0;fontSize=12;fontFamily=Helvetica;fontColor=default;" parent="1" vertex="1">
          <mxGeometry x="680" y="20" width="280" height="50" as="geometry" />
        </mxCell>
      </root>
    </mxGraphModel>
  </diagram>
</mxfile>
